<svg width="13" height="14" viewBox="0 0 13 14" fill="none" xmlns="http://www.w3.org/2000/svg">
<path d="M5.5 0.257324C5.10282 0.259276 4.72251 0.406649 4.44166 0.667439C4.16081 0.928228 4.0021 1.28137 4 1.65018V2.11447H0.5C0.367392 2.11447 0.240216 2.16338 0.146448 2.25045C0.0526799 2.33752 0 2.45562 0 2.57875C0 2.70189 0.0526799 2.81998 0.146448 2.90705C0.240216 2.99412 0.367392 3.04304 0.5 3.04304H1.025L1.47 10.96C1.48964 11.5677 1.76012 12.1451 2.22548 12.5727C2.69083 13.0003 3.31543 13.2454 3.97 13.2573H9C9.6541 13.2446 10.278 12.9993 10.7431 12.572C11.2082 12.1448 11.4791 11.5682 11.5 10.961L11.973 3.04304H12.5C12.6326 3.04304 12.7598 2.99412 12.8536 2.90705C12.9473 2.81998 13 2.70189 13 2.57875C13 2.45562 12.9473 2.33752 12.8536 2.25045C12.7598 2.16338 12.6326 2.11447 12.5 2.11447H9V1.65018C8.9979 1.28137 8.83919 0.928228 8.55834 0.667439C8.27749 0.406649 7.89718 0.259276 7.5 0.257324H5.5ZM5.5 1.1859H7.5C7.56611 1.18437 7.63187 1.19533 7.69327 1.21812C7.75468 1.24091 7.81046 1.27506 7.85722 1.31848C7.90398 1.3619 7.94075 1.41369 7.9653 1.47071C7.98984 1.52773 8.00165 1.58879 8 1.65018V2.11447H5V1.65018C4.99835 1.58879 5.01016 1.52773 5.03471 1.47071C5.05925 1.41369 5.09602 1.3619 5.14278 1.31848C5.18954 1.27506 5.24532 1.24091 5.30673 1.21812C5.36814 1.19533 5.43389 1.18437 5.5 1.1859ZM2.026 3.04304H10.971L10.5 10.9108C10.5016 11.283 10.345 11.6408 10.0641 11.9063C9.78319 12.1718 9.40079 12.3236 9 12.3288H3.97C3.56914 12.3243 3.18643 12.1729 2.90541 11.9074C2.62438 11.6419 2.46786 11.284 2.47 10.9118L2.026 3.04304Z" fill="#787F8F"/>
<path d="M4.99902 4.90015C4.86642 4.90015 4.73925 4.94907 4.64548 5.03614C4.55171 5.12321 4.49902 5.2413 4.49902 5.36443V10.0073C4.49902 10.1304 4.55171 10.2485 4.64548 10.3356C4.73925 10.4227 4.86642 10.4716 4.99902 10.4716C5.13163 10.4716 5.25882 10.4227 5.35258 10.3356C5.44635 10.2485 5.49902 10.1304 5.49902 10.0073V5.36443C5.49902 5.2413 5.44635 5.12321 5.35258 5.03614C5.25882 4.94907 5.13163 4.90015 4.99902 4.90015Z" fill="#787F8F"/>
<path d="M8 4.90015C7.86739 4.90015 7.74019 4.94907 7.64642 5.03614C7.55266 5.12321 7.5 5.2413 7.5 5.36443V10.0073C7.5 10.1304 7.55266 10.2485 7.64642 10.3356C7.74019 10.4227 7.86739 10.4716 8 10.4716C8.13261 10.4716 8.25978 10.4227 8.35355 10.3356C8.44731 10.2485 8.5 10.1304 8.5 10.0073V5.36443C8.5 5.2413 8.44731 5.12321 8.35355 5.03614C8.25978 4.94907 8.13261 4.90015 8 4.90015Z" fill="#787F8F"/>
</svg>
