<svg width="14" height="16" viewBox="0 0 14 16" fill="none" xmlns="http://www.w3.org/2000/svg">
<path d="M5.92308 0.5C5.49535 0.502252 5.08578 0.672298 4.78333 0.973209C4.48087 1.27412 4.30996 1.6816 4.30769 2.10714V2.64286H0.538462C0.395653 2.64286 0.258694 2.6993 0.157713 2.79976C0.0567323 2.90023 0 3.03649 0 3.17857C0 3.32065 0.0567323 3.45691 0.157713 3.55738C0.258694 3.65784 0.395653 3.71429 0.538462 3.71429H1.10385L1.58308 12.8493C1.60423 13.5504 1.89552 14.2166 2.39667 14.7101C2.89782 15.2035 3.57046 15.4863 4.27539 15.5H9.69231C10.3967 15.4853 11.0686 15.2023 11.5695 14.7093C12.0704 14.2163 12.3622 13.551 12.3846 12.8504L12.894 3.71429H13.4615C13.6043 3.71429 13.7413 3.65784 13.8423 3.55738C13.9433 3.45691 14 3.32065 14 3.17857C14 3.03649 13.9433 2.90023 13.8423 2.79976C13.7413 2.6993 13.6043 2.64286 13.4615 2.64286H9.69231V2.10714C9.69005 1.6816 9.51913 1.27412 9.21667 0.973209C8.91422 0.672298 8.50465 0.502252 8.07692 0.5H5.92308ZM5.92308 1.57143H8.07692C8.14812 1.56966 8.21893 1.58231 8.28506 1.60861C8.3512 1.63491 8.41126 1.67431 8.46162 1.72441C8.51198 1.77451 8.55158 1.83427 8.57801 1.90006C8.60444 1.96586 8.61716 2.03631 8.61539 2.10714V2.64286H5.38462V2.10714C5.38284 2.03631 5.39556 1.96586 5.42199 1.90006C5.44842 1.83427 5.48802 1.77451 5.53838 1.72441C5.58874 1.67431 5.64881 1.63491 5.71494 1.60861C5.78107 1.58231 5.85188 1.56966 5.92308 1.57143ZM2.18185 3.71429H11.8149L11.3077 12.7925C11.3094 13.2219 11.1407 13.6347 10.8382 13.9411C10.5357 14.2475 10.1239 14.4226 9.69231 14.4286H4.27539C3.84369 14.4235 3.43154 14.2487 3.1289 13.9424C2.82626 13.6361 2.6577 13.2231 2.66 12.7936L2.18185 3.71429Z" fill="#A1A6B1"/>
<path d="M5.38416 5.85718C5.24136 5.85718 5.1044 5.91363 5.00342 6.01409C4.90244 6.11456 4.8457 6.25081 4.8457 6.39289V11.75C4.8457 11.8921 4.90244 12.0284 5.00342 12.1289C5.1044 12.2293 5.24136 12.2857 5.38416 12.2857C5.52697 12.2857 5.66394 12.2293 5.76492 12.1289C5.8659 12.0284 5.92263 11.8921 5.92263 11.75V6.39289C5.92263 6.25081 5.8659 6.11456 5.76492 6.01409C5.66394 5.91363 5.52697 5.85718 5.38416 5.85718Z" fill="#A1A6B1"/>
<path d="M8.61561 5.85718C8.4728 5.85718 8.33582 5.91363 8.23484 6.01409C8.13385 6.11456 8.07715 6.25081 8.07715 6.39289V11.75C8.07715 11.8921 8.13385 12.0284 8.23484 12.1289C8.33582 12.2293 8.4728 12.2857 8.61561 12.2857C8.75842 12.2857 8.89537 12.2293 8.99635 12.1289C9.09733 12.0284 9.15407 11.8921 9.15407 11.75V6.39289C9.15407 6.25081 9.09733 6.11456 8.99635 6.01409C8.89537 5.91363 8.75842 5.85718 8.61561 5.85718Z" fill="#A1A6B1"/>
</svg>
