<svg width="15" height="16" viewBox="0 0 15 16" fill="none" xmlns="http://www.w3.org/2000/svg">
<rect x="0.5" y="1.25732" width="14" height="14" rx="1.5" fill="white" stroke="#A1A6B1"/>
<path d="M10.0124 7.83096H7.7517H4.98854C4.87727 7.83096 4.77381 7.8797 4.69991 7.96098C4.62644 8.04178 4.5873 8.14857 4.5873 8.25727C4.5873 8.36598 4.62644 8.47276 4.69991 8.55357C4.77381 8.63485 4.87727 8.68359 4.98854 8.68359H7.7517H10.0124C10.1237 8.68359 10.2271 8.63485 10.301 8.55357C10.3745 8.47276 10.4136 8.36597 10.4136 8.25727C10.4136 8.14857 10.3745 8.04178 10.301 7.96098C10.2271 7.8797 10.1237 7.83096 10.0124 7.83096Z" fill="#787F8F" stroke="#787F8F" stroke-width="0.3"/>
</svg>
