<svg width="13" height="14" viewBox="0 0 13 14" fill="none" xmlns="http://www.w3.org/2000/svg">
<path d="M10.6861 7.08134C10.566 7.07831 10.4496 7.12307 10.3625 7.20577C10.2754 7.28848 10.2247 7.40238 10.2216 7.52245V11.9335C10.2184 12.0536 10.1677 12.1675 10.0806 12.2502C9.99347 12.3329 9.8771 12.3777 9.75702 12.3746H1.39361C1.27353 12.3777 1.15716 12.3329 1.07006 12.2502C0.98296 12.1675 0.932252 12.0536 0.929075 11.9335V3.11136C0.932252 2.99129 0.98296 2.87739 1.07006 2.79468C1.15716 2.71198 1.27353 2.66722 1.39361 2.67025L5.88472 2.71791C5.94497 2.72169 6.00537 2.71309 6.06217 2.69263C6.11897 2.67217 6.17098 2.64029 6.21499 2.59896C6.25899 2.55763 6.29407 2.50772 6.31804 2.45231C6.34202 2.39691 6.35439 2.33717 6.35439 2.2768C6.35439 2.21643 6.34202 2.1567 6.31804 2.10129C6.29407 2.04589 6.25899 1.99598 6.21499 1.95465C6.17098 1.91332 6.11897 1.88144 6.06217 1.86098C6.00537 1.84052 5.94497 1.83192 5.88472 1.83569L1.39361 1.78803C1.03338 1.77895 0.684263 1.91321 0.42296 2.16134C0.161657 2.40946 0.00953162 2.75116 0 3.11136L0 11.9335C0.00953162 12.2937 0.161657 12.6354 0.42296 12.8836C0.684263 13.1317 1.03338 13.2659 1.39361 13.2569H9.75702C10.1173 13.2659 10.4664 13.1317 10.7277 12.8836C10.989 12.6354 11.1411 12.2937 11.1506 11.9335V7.52245C11.1475 7.40238 11.0967 7.28848 11.0096 7.20577C10.9225 7.12307 10.8062 7.07831 10.6861 7.08134Z" fill="#787F8F"/>
<path d="M12.5179 0.729049C12.2067 0.426551 11.7897 0.257324 11.3557 0.257324C10.9217 0.257324 10.5047 0.426551 10.1935 0.729049L4.53931 6.26848C4.49264 6.31464 4.45734 6.371 4.43618 6.43314L3.5773 8.95673C3.55965 9.00946 3.55269 9.06517 3.55682 9.12062C3.56094 9.17607 3.57607 9.23014 3.60132 9.27968C3.62658 9.32921 3.66145 9.37322 3.7039 9.40913C3.74635 9.44504 3.79553 9.47214 3.84857 9.48884C3.89223 9.50311 3.93785 9.51042 3.98377 9.5105C4.02998 9.51039 4.07588 9.50308 4.11984 9.48884L6.69559 8.64735C6.75866 8.62686 6.81618 8.59217 6.86373 8.54595L12.5179 3.00652C12.6703 2.85861 12.7915 2.68161 12.8743 2.48601C12.957 2.2904 12.9997 2.08017 12.9997 1.86779C12.9997 1.6554 12.957 1.44517 12.8743 1.24957C12.7915 1.05396 12.6703 0.876959 12.5179 0.729049ZM11.9112 2.41116L6.33073 7.88039L4.66324 8.42549L5.21792 6.79452L10.801 1.32788C10.9497 1.18341 11.1488 1.10259 11.3561 1.10259C11.5634 1.10259 11.7626 1.18341 11.9112 1.32788C11.9839 1.39833 12.0417 1.48265 12.0811 1.57584C12.1205 1.66903 12.1409 1.76919 12.1409 1.87039C12.1409 1.97158 12.1205 2.07174 12.0811 2.16493C12.0417 2.25812 11.9839 2.34244 11.9112 2.41289V2.41116Z" fill="#787F8F"/>
</svg>
