<svg width="13" height="14" viewBox="0 0 13 14" fill="none" xmlns="http://www.w3.org/2000/svg">
<g clip-path="url(#clip0_374_9110)">
<path d="M1.89587 1.34912H0.270866C0.1213 1.34912 0 1.47042 0 1.61999V3.24499C0 3.39445 0.1213 3.51575 0.270866 3.51575H1.89587C2.04533 3.51575 2.16663 3.39445 2.16663 3.24499V1.61999C2.16663 1.47042 2.04533 1.34912 1.89587 1.34912Z" fill="#787F8F"/>
<path d="M1.89587 5.68237H0.270866C0.1213 5.68237 0 5.80367 0 5.95314V7.57814C0 7.72771 0.1213 7.84901 0.270866 7.84901H1.89587C2.04533 7.84901 2.16663 7.72771 2.16663 7.57814V5.95314C2.16663 5.80367 2.04533 5.68237 1.89587 5.68237Z" fill="#787F8F"/>
<path d="M1.89587 10.0159H0.270866C0.1213 10.0159 0 10.1373 0 10.2867V11.9117C0 12.0612 0.1213 12.1826 0.270866 12.1826H1.89587C2.04533 12.1826 2.16663 12.0612 2.16663 11.9117V10.2867C2.16663 10.1373 2.04533 10.0159 1.89587 10.0159Z" fill="#787F8F"/>
<path d="M4.33372 2.97424H12.4587C12.7583 2.97424 13.0004 2.73213 13.0004 2.4326C13.0004 2.13307 12.7583 1.89087 12.4587 1.89087H4.33372C4.03419 1.89087 3.79199 2.13307 3.79199 2.4326C3.79199 2.73213 4.03419 2.97424 4.33372 2.97424Z" fill="#787F8F"/>
<path d="M12.4587 6.22412H4.33372C4.03419 6.22412 3.79199 6.46622 3.79199 6.76575C3.79199 7.06528 4.03419 7.30749 4.33372 7.30749H12.4587C12.7583 7.30749 13.0004 7.06528 13.0004 6.76575C13.0004 6.46622 12.7583 6.22412 12.4587 6.22412Z" fill="#787F8F"/>
<path d="M12.4587 10.5574H4.33372C4.03419 10.5574 3.79199 10.7995 3.79199 11.099C3.79199 11.3985 4.03419 11.6406 4.33372 11.6406H12.4587C12.7583 11.6406 13.0004 11.3985 13.0004 11.099C13.0004 10.7995 12.7583 10.5574 12.4587 10.5574Z" fill="#787F8F"/>
</g>
<defs>
<clipPath id="clip0_374_9110">
<rect width="13" height="13" fill="white" transform="translate(0 0.257324)"/>
</clipPath>
</defs>
</svg>
