<svg width="15" height="16" viewBox="0 0 15 16" fill="none" xmlns="http://www.w3.org/2000/svg">
<rect x="0.5" y="1" width="14" height="14" rx="1.5" fill="white" stroke="#A1A6B1"/>
<path d="M10.0124 7.57363H7.7517H4.98854C4.87727 7.57363 4.77381 7.62237 4.69991 7.70365C4.62644 7.78446 4.5873 7.89125 4.5873 7.99995C4.5873 8.10865 4.62644 8.21544 4.69991 8.29624C4.77381 8.37752 4.87727 8.42626 4.98854 8.42626H7.7517H10.0124C10.1237 8.42626 10.2271 8.37752 10.301 8.29624C10.3745 8.21544 10.4136 8.10865 10.4136 7.99995C10.4136 7.89125 10.3745 7.78446 10.301 7.70365C10.2271 7.62237 10.1237 7.57363 10.0124 7.57363Z" fill="#787F8F" stroke="#787F8F" stroke-width="0.3"/>
<path d="M7.92734 10.5119L7.92734 8.25121L7.92734 5.48805C7.92734 5.37678 7.8786 5.27332 7.79732 5.19942C7.71652 5.12595 7.60973 5.08682 7.50103 5.08682C7.39233 5.08682 7.28554 5.12595 7.20473 5.19942C7.12345 5.27332 7.07471 5.37678 7.07471 5.48805L7.07471 8.25121L7.07471 10.5119C7.07471 10.6232 7.12345 10.7266 7.20473 10.8005C7.28554 10.874 7.39233 10.9131 7.50103 10.9131C7.60973 10.9131 7.71652 10.874 7.79732 10.8005C7.8786 10.7266 7.92734 10.6232 7.92734 10.5119Z" fill="#787F8F" stroke="#787F8F" stroke-width="0.3"/>
</svg>
